<?xml version="1.0" encoding="utf-8"?>
<!-- Generator: Adobe Illustrator 24.1.1, SVG Export Plug-In . SVG Version: 6.00 Build 0)  -->
<svg version="1.1" xmlns="http://www.w3.org/2000/svg" xmlns:xlink="http://www.w3.org/1999/xlink" x="0px" y="0px"
	 viewBox="0 0 150 150" style="enable-background:new 0 0 150 150;" xml:space="preserve">
<style type="text/css">
	.st0{display:none;}
	.st1{display:inline;}
	.st2{fill:none;stroke:#B59532;stroke-width:2;stroke-miterlimit:10;}
	.st3{fill:#565F73;}
	.st4{fill:#B59532;}
	.st5{display:inline;fill:#B59532;}
</style>
<g id="Layer_1" class="st0">
	<g class="st1">
		<path class="st2" d="M43.2,145v-7.9c0-4.6-10.6-11.4-19.3-11.4s-19.3,6.8-19.3,11.4v7.9"/>
		<path class="st2" d="M23.9,96.8c-6.6,0-12.9,4.7-12.9,10.4v8.1c0,5.8,6.2,10.4,12.9,10.4c6.6,0,12.9-4.7,12.9-10.4v-8.1
			C36.7,101.4,30.5,96.8,23.9,96.8z"/>
		<path class="st2" d="M94.6,145v-7.9c0-4.6-10.6-11.4-19.3-11.4S56,132.5,56,137.1v7.9"/>
		<path class="st2" d="M75.3,96.8c-6.6,0-12.9,4.7-12.9,10.4v8.1c0,5.8,6.2,10.4,12.9,10.4c6.6,0,12.9-4.7,12.9-10.4v-8.1
			C88.1,101.4,81.9,96.8,75.3,96.8z"/>
		<path class="st2" d="M94.6,55v-7.9c0-4.6-10.6-11.4-19.3-11.4S56,42.5,56,47.1V55"/>
		<path class="st2" d="M75.3,6.8c-6.6,0-12.9,5.2-12.9,11.6v5.8c0,6.4,6.2,11.6,12.9,11.6c6.6,0,12.9-5.2,12.9-11.6v-5.8
			C88.1,12,81.9,6.8,75.3,6.8z"/>
		<path class="st2" d="M146,145v-7.9c0-4.6-10.6-11.4-19.3-11.4s-19.3,6.8-19.3,11.4v7.9"/>
		<path class="st2" d="M126.7,96.8c-6.6,0-12.9,4.7-12.9,10.4v8.1c0,5.8,6.2,10.4,12.9,10.4c6.6,0,12.9-4.7,12.9-10.4v-8.1
			C139.6,101.4,133.4,96.8,126.7,96.8z"/>
		<line class="st2" x1="75.3" y1="55" x2="75.3" y2="87.1"/>
		<polyline class="st2" points="126.7,87.1 126.7,71.1 23.9,71.1 23.9,87.1 		"/>
	</g>
</g>
<g id="Layer_2" class="st0">
	<g class="st1">
		<g>
			<g>
				<path class="st3" d="M69.1,145c-14.9,0-28.9-5.8-39.4-16.3c-10.5-10.5-16.3-24.5-16.3-39.4s5.8-28.9,16.3-39.4
					C40.1,39.3,54.1,33.5,69,33.5c1.2,0,2.4,0,3.6,0.1c0.6,0,1.3,0.3,1.7,0.8c0.4,0.5,0.6,1.1,0.6,1.8l-3.2,49.2L116,63.8
					c0.6-0.3,1.3-0.3,1.9-0.1c0.6,0.2,1.1,0.7,1.4,1.2c10.3,21.3,6,47-10.8,63.7C98,139.2,84,145,69.1,145z M69,38.3
					c-13.6,0-26.4,5.3-36,14.9c-9.6,9.6-14.9,22.4-14.9,36s5.3,26.4,14.9,36c9.6,9.6,22.4,14.9,36,14.9c13.6,0,26.4-5.3,36-14.9
					c14.7-14.7,18.9-36.9,10.8-55.9L70,91.6c-0.8,0.4-1.7,0.3-2.4-0.2c-0.7-0.5-1.1-1.3-1.1-2.2l0-0.2l3.3-50.7
					C69.6,38.3,69.3,38.3,69,38.3z"/>
			</g>
		</g>
		<g>
			<path class="st3" d="M87.1,71.8c-0.7,0-1.3-0.3-1.8-0.8c-0.7-0.8-0.9-1.9-0.4-2.8l25.3-47.3c0.6-1.2,2.1-1.6,3.3-1
				c5.3,2.8,10,6.4,14.1,10.7c4.1,4.3,7.5,9.2,10.1,14.6c0.6,1.2,0.1,2.7-1.2,3.3L88.1,71.5C87.8,71.7,87.4,71.8,87.1,71.8z
				 M113.3,25.4L92.7,63.9l39.4-18.8c-2.2-4.1-4.9-7.8-8.1-11.1C120.9,30.6,117.3,27.7,113.3,25.4z"/>
		</g>
		<g>
			<path class="st3" d="M78.9,65.6c-0.2,0-0.4,0-0.6-0.1c-1.1-0.3-1.9-1.4-1.8-2.5l3.5-53.6C80,8,81.2,7,82.5,7.1
				c7.3,0.5,14.3,2.3,20.9,5.5c1.2,0.6,1.7,2,1.1,3.3L81.1,64.2C80.7,65.1,79.8,65.6,78.9,65.6z M84.7,12.2l-2.5,38.7l16.9-34.9
				C94.5,14,89.6,12.7,84.7,12.2z"/>
		</g>
		<g>
			<path class="st3" d="M117.5,112.5c-0.3,0-0.7-0.1-1-0.2L69.7,91.5c-1.2-0.5-1.8-2-1.2-3.2c0.5-1.2,2-1.8,3.2-1.2l46.8,20.8
				c1.2,0.5,1.8,2,1.2,3.2C119.3,112,118.5,112.5,117.5,112.5z"/>
		</g>
	</g>
</g>
<g id="Layer_3" class="st0">
	<g class="st1">
		<g>
			<path class="st4" d="M65.9,140.7C65.9,140.7,65.9,140.7,65.9,140.7c-16.4,0-32.1-7-43-19.3C12.6,110,7.4,95.2,8.3,79.8
				C9.2,64.4,16,50.3,27.5,40.1C38,30.6,51.7,25.4,65.8,25.4c6,0,12,0.9,17.7,2.8c0.7,0.2,1.2,0.7,1.6,1.3c0.3,0.6,0.4,1.4,0.2,2
				L69.3,80l49.9-10.4c0.7-0.1,1.4,0,2,0.4c0.6,0.4,1,1,1.1,1.7c4,20-2.9,40.8-18.1,54.4C93.7,135.5,80.1,140.7,65.9,140.7z
				 M65.8,30.7C53,30.7,40.6,35.4,31,44c-10.4,9.3-16.6,22.1-17.4,36.1c-0.8,14,3.9,27.4,13.2,37.8c9.9,11.1,24.2,17.5,39.1,17.5
				c12.9,0,25.2-4.7,34.9-13.3c13.1-11.7,19.5-29.4,16.9-46.8L65.9,86.1C65,86.3,64,86,63.4,85.3c-0.6-0.7-0.8-1.7-0.5-2.6
				l16.5-50.2C75,31.3,70.4,30.7,65.8,30.7z"/>
		</g>
		<g>
			<path class="st4" d="M93.4,63.4c-0.7,0-1.5-0.3-2-0.9c-0.6-0.7-0.8-1.7-0.5-2.6l15.4-46.5c0.5-1.4,1.9-2.1,3.3-1.7
				c8.6,2.8,16.4,7.8,22.4,14.6c6,6.8,10.2,15,12,23.9c0.3,1.4-0.6,2.8-2.1,3.1l-48,10C93.7,63.4,93.6,63.4,93.4,63.4z M110.4,17.6
				L97.3,57.2l40.8-8.5c-1.8-7-5.3-13.5-10.1-18.9C123.2,24.4,117.1,20.2,110.4,17.6z"/>
		</g>
		<g>
			<path class="st4" d="M93.4,63.4c-0.7,0-1.5-0.3-2-0.9c-0.6-0.7-0.8-1.7-0.5-2.6l15.4-46.5c0.5-1.4,1.9-2.1,3.3-1.7
				c8.6,2.8,16.4,7.8,22.4,14.6c6,6.8,10.2,15,12,23.9c0.3,1.4-0.6,2.8-2.1,3.1l-48,10C93.7,63.4,93.6,63.4,93.4,63.4z M110.4,17.6
				L97.3,57.2l40.8-8.5c-1.8-7-5.3-13.5-10.1-18.9C123.2,24.4,117.1,20.2,110.4,17.6z"/>
		</g>
	</g>
</g>
<g id="Layer_4" class="st0">
	<path class="st5" d="M62.6,101.7l-13.9-3.8v-3.6c4.5-3.1,7.1-8.2,7.1-13.6v-2.4c1.3,0,2.4-1.1,2.4-2.4v-7.1c0-10.5-8.5-19-19-19
		s-19,8.5-19,19V76c0,1.3,1.1,2.4,2.4,2.4v2.4c0,5.4,2.7,10.5,7.1,13.6v3.6l-13.9,3.8c-7.2,2-12.2,8.5-12.2,16v24.7
		c0,1.3,1.1,2.4,2.4,2.4h66.5c1.3,0,2.4-1.1,2.4-2.4v-24.7C74.8,110.2,69.8,103.7,62.6,101.7z M25,68.9c0-7.9,6.4-14.2,14.2-14.2
		S53.4,61,53.4,68.9v4.7h-1.6c-2.2,0-4.1-1.5-4.6-3.6l-1-4.1c-0.2-0.9-0.9-1.6-1.8-1.8c-0.2,0-0.3,0-0.5,0c-0.7,0-1.5,0.4-1.9,0.9
		L40.6,67c-3.1,4.2-8.1,6.6-13.3,6.6H25V68.9z M27.3,80.7v-2.4c5.9,0,11.4-2.4,15.5-6.6c1.2,3.7,4.4,6.3,8.2,6.6v2.4
		c0,6.6-5.3,11.9-11.9,11.9S27.3,87.3,27.3,80.7z M39.2,97.3c1.6,0,3.2-0.2,4.7-0.7v3.1c0,0.7,0.3,1.3,0.8,1.8l-5.6,4.6l-5.6-4.6
		c0.5-0.4,0.8-1.1,0.8-1.8v-3.1C36,97.1,37.6,97.3,39.2,97.3z M70.1,140.1h-7.1v-21.4h-4.7v21.4h-38v-21.4h-4.7v21.4H8.3v-22.4
		c0-5.3,3.6-10,8.7-11.5l11.2-3l9.4,7.8c0.9,0.7,2.2,0.7,3,0l9.4-7.8l11.2,3c5.2,1.4,8.7,6.1,8.7,11.5V140.1z"/>
	<path class="st5" d="M91.4,7.2c-1.3,0-2.4,1.1-2.4,2.4v52.2c0,1.3,1.1,2.4,2.4,2.4h52.2c1.3,0,2.4-1.1,2.4-2.4
		C146,31.6,121.5,7.2,91.4,7.2z M93.8,59.4V12c25.6,1.3,46.2,21.8,47.4,47.4H93.8z"/>
	<path class="st5" d="M134.1,68.9H84.3V19c0-1.3-1.1-2.4-2.4-2.4c-19.4,0-37.3,10.3-47.1,27.1l4.1,2.4c8.5-14.5,23.8-23.8,40.7-24.6
		v49.8c0,1.3,1.1,2.4,2.4,2.4h49.8c-1.3,26.6-23.2,47.4-49.8,47.5c-0.8,0-1.5,0-2.3,0l-0.2,4.7c0.8,0,1.6,0,2.5,0
		c30.1,0,54.6-24.5,54.6-54.6C136.5,69.9,135.4,68.9,134.1,68.9z"/>
</g>
<g id="Layer_5">
	<g>
		<path class="st4" d="M54.4,111c-1.1,0-2.1,0.9-2.1,2.1v10.9c0,1.1,0.9,2.1,2.1,2.1c1.1,0,2.1-0.9,2.1-2.1V113
			C56.4,111.9,55.5,111,54.4,111L54.4,111z"/>
		<path class="st4" d="M94.3,111c-1.1,0-2.1,0.9-2.1,2.1v10.9c0,1.1,0.9,2.1,2.1,2.1s2.1-0.9,2.1-2.1V113
			C96.4,111.9,95.5,111,94.3,111L94.3,111z"/>
		<path class="st4" d="M134.4,103.8l-6.9-2.8v-1.8c1.4-0.8,2.6-1.7,3.6-2.9c4.4,0.5,8.6-1.2,11.3-4.7c2.8-3.6,3.4-8.3,1.6-12.5
			l-3.1-7.2c-0.2-0.5-0.4-1.1-0.5-1.7c-0.7-4.6-3-8.9-6.5-12c-3.6-3.1-8.1-4.8-12.8-4.8s-9.2,1.7-12.8,4.8c-3.6,3.1-5.9,7.3-6.5,12
			c-0.1,0.6-0.2,1.1-0.5,1.7l-3.1,7.2c-1.8,4.2-1.2,8.9,1.6,12.5c2.4,3.1,5.9,4.8,9.8,4.8c0.5,0,1,0,1.5-0.1c0.9,1.1,2,2,3.2,2.7v2
			l-6.9,2.8c-0.5,0.2-0.9,0.4-1.3,0.6c-1.3-2.5-3.2-4.6-5.6-6.2l-9-6.2c0.1-1.1-0.4-2.3-1.3-3.1l-3.7-3.1c-0.3-0.3-0.7-0.5-1.1-0.7
			v-4.2c3.9-2.8,6.6-7.1,7.4-12h0.2c3.9,0,7.1-3.2,7.1-7.1c0-1.7-0.6-3.2-1.6-4.4l1.5-10.5c1.1-7.6-4.2-14.6-11.8-15.8l-0.3,0
			c-2.4-3.9-6.2-6.8-10.6-8.1l-0.5-0.2c-6-1.7-12.3-0.7-17.5,2.8c-0.9,0.6-1.2,1.9-0.6,2.9s1.9,1.2,2.9,0.6c4.1-2.8,9.3-3.6,14-2.2
			L76,27c3.8,1.1,6.8,3.5,8.7,7c1.3,2.4,1.8,5,1.7,7.6L85,40.3c-1.3-1.1-3.2-1.1-4.5-0.1l-1.8,1.5H68.2c-6.8,0-12.3,5.5-12.3,12.3
			v0.6c-0.5,0-1.1,0.1-1.6,0.2c-2.3-6.6-1.7-14,1.8-20c0.6-1,0.2-2.2-0.8-2.8c-1-0.6-2.2-0.2-2.8,0.8c-4.2,7.3-4.9,16.3-1.9,24.2
			c-1.2,1.3-1.9,3-1.9,4.8c0,3.9,3.2,7.1,7.1,7.1h0.2c0.8,4.9,3.5,9.2,7.4,12v4.2c-0.4,0.2-0.8,0.4-1.1,0.7l-3.7,3.1
			c-0.9,0.8-1.4,1.9-1.3,3.1l-9,6.2c-1.8,1.3-3.4,2.8-4.6,4.6c-0.8-0.4-1.6-0.8-2.5-1.1l-6.1-2.2v-1.6c3.1-1.9,5.4-5.1,6-8.9h0.9
			c3.6,0,6.6-2.9,6.6-6.6c0-1.6-0.6-3.1-1.6-4.3l0.4-4.4c0.5-6.3-2.2-12.2-7.3-15.9c-5.1-3.7-11.6-4.4-17.4-2l-4.1,1.7
			c-6.4,1.4-10.6,7.5-9.7,14l0.9,6.6c-1,1.2-1.6,2.6-1.6,4.3c0,3.6,2.9,6.6,6.6,6.6h0.9c0.6,3.5,2.6,6.5,5.4,8.5v2l-6.1,2.2
			c-0.9,0.3-1.7,0.7-2.5,1.1c-1,0.6-1.4,1.8-0.8,2.8c0.4,0.7,1.1,1.1,1.8,1.1c0.3,0,0.7-0.1,1-0.3c0.6-0.3,1.2-0.6,1.9-0.9l5.3-1.9
			c1.1,2.5,3.6,4.3,6.5,4.3s5.5-1.8,6.5-4.3l5.3,1.9c0.7,0.2,1.3,0.5,1.9,0.9c-0.8,2.1-1.3,4.3-1.3,6.6v12.2c0,1.1,0.9,2.1,2.1,2.1
			s2.1-0.9,2.1-2.1V113c0-4.6,2.3-8.9,6-11.5l8.6-5.9l3.5,4.7c0.8,1,1.9,1.6,3.2,1.6c0.4,0,0.8-0.1,1.1-0.2l5.1-1.6v25.9
			c0,1.1,0.9,2.1,2.1,2.1s2.1-0.9,2.1-2.1v-25.9l5.1,1.6c0.4,0.1,0.8,0.2,1.1,0.2c1.2,0,2.4-0.6,3.2-1.6l3.5-4.7l8.6,5.9
			c3.8,2.6,6,6.9,6,11.5v12.2c0,1.1,0.9,2.1,2.1,2.1s2.1-0.9,2.1-2.1V113c0-1.6-0.2-3.2-0.6-4.8c0.4-0.2,0.9-0.5,1.3-0.6l6-2.4
			c1.1,2.3,3.4,3.9,6.1,3.9c2.7,0,5-1.6,6.1-3.9l6,2.4c3.8,1.5,6.2,5.1,6.2,9.2v3.5c0,1.1,0.9,2.1,2.1,2.1s2.1-0.9,2.1-2.1v-3.5
			C143.3,111,139.8,105.9,134.4,103.8L134.4,103.8z M52.9,61.8c0-1.7,1.3-3,3-3v6C54.2,64.8,52.9,63.4,52.9,61.8z M42.1,84.8h-0.7
			v-4.9h0.7c1.3,0,2.4,1.1,2.4,2.4C44.5,83.7,43.4,84.8,42.1,84.8L42.1,84.8z M12.3,82.4c0-1.3,1.1-2.4,2.4-2.4h0.7v4.9h-0.7
			C13.4,84.8,12.3,83.7,12.3,82.4L12.3,82.4z M18,69.4c-1.4,1.9-2.2,4.1-2.4,6.4h-0.8c-0.4,0-0.7,0-1.1,0.1l-0.7-4.9
			c-0.6-4.4,2.3-8.5,6.7-9.4c0.1,0,0.3-0.1,0.4-0.1l4.3-1.8c4.5-1.9,9.5-1.3,13.4,1.5c3.9,2.8,6,7.4,5.6,12.3l-0.2,2.5
			c-0.3-0.1-0.7-0.1-1-0.1h-0.8c-0.2-1.8-1.7-3.1-3.5-3.1h-5.1c-3.6,0-7.2-1.2-10.1-3.4L22,68.8c-0.6-0.5-1.4-0.7-2.2-0.6
			C19.1,68.4,18.4,68.8,18,69.4L18,69.4z M21.3,71.9C21.3,71.9,21.3,71.9,21.3,71.9C21.3,71.9,21.3,71.9,21.3,71.9z M19.6,77.2
			c0-1.5,0.4-2.9,1-4.2c3.5,2.5,7.8,3.9,12.1,3.9h4.4v10c0,4.9-3.9,8.8-8.8,8.8s-8.8-3.9-8.8-8.8L19.6,77.2z M28.1,103.8
			c-1.6,0-2.9-1.3-2.9-2.9v-1.6c1,0.3,2.1,0.4,3.2,0.4c0.9,0,1.8-0.1,2.6-0.3v1.4C31,102.5,29.7,103.8,28.1,103.8z M92.8,64.8v-6
			c1.6,0,3,1.4,3,3C95.8,63.4,94.5,64.8,92.8,64.8z M95.8,46.3l-1.2,8.6c-0.6-0.1-1.1-0.2-1.7-0.2v-0.2c0-3.3-1-6.5-2.9-9.2
			c0.8-3.1,0.8-6.4-0.1-9.4C93.9,37.6,96.4,41.8,95.8,46.3z M60,65.9V54.1c0-4.5,3.7-8.2,8.2-8.2h11.2c0.5,0,0.9-0.2,1.3-0.5l2-1.6
			l1.8,1.6c2.7,2.3,4.2,5.6,4.2,9.1v11.4c0,7.9-6.4,14.4-14.4,14.4S60,73.9,60,65.9L60,65.9z M74.3,84.4c2.4,0,4.6-0.5,6.7-1.3v2.6
			l-6.7,3.3l-6.7-3.3v-2.6C69.7,84,72,84.4,74.3,84.4z M66.1,97.8l-4.4-5.9l3.2-2.8l7.4,3.6v3.2L66.1,97.8z M82.6,97.8l-6.2-1.9
			v-3.2l7.4-3.6l3.2,2.8L82.6,97.8z M102.9,89.1c-1.9-2.4-2.3-5.5-1-8.4l3.1-7.2c0.4-0.9,0.6-1.8,0.8-2.7
			c1.1-7.5,7.6-13.2,15.2-13.2s14.2,5.7,15.2,13.2c0.1,0.9,0.4,1.9,0.8,2.7l3.1,7.2c1.2,2.8,0.8,5.9-1,8.4c-1.4,1.8-3.3,2.9-5.5,3.2
			c0.4-1.2,0.7-2.4,0.8-3.7c0.1-1.1-0.8-2.1-1.9-2.2c-1.1-0.1-2.1,0.8-2.2,1.9c-0.4,4.8-4.5,8.6-9.3,8.6c-5.2,0-9.3-4.2-9.3-9.3
			v-9.9c0-2.2,0.6-4.4,1.8-6.2c2.7,2,6,3.2,9.3,3.3l7.5,0.2v4.8c0,1.1,0.9,2.1,2.1,2.1s2.1-0.9,2.1-2.1v-5.3c0-1.9-1.5-3.5-3.5-3.6
			l-8.1-0.2c-2.6-0.1-5.2-1-7.2-2.7l-0.5-0.4c-0.6-0.5-1.4-0.7-2.2-0.7c-0.8,0.1-1.5,0.5-2,1.1c-2.2,2.7-3.4,6.2-3.4,9.7v9.9
			c0,1.7,0.3,3.3,0.9,4.8C106.3,92,104.3,90.9,102.9,89.1L102.9,89.1z M120.8,104.9c-1.4,0-2.6-1.1-2.6-2.6v-1.8
			c0.9,0.2,1.8,0.3,2.7,0.3c0.8,0,1.6-0.1,2.4-0.2v1.7C123.4,103.8,122.3,104.9,120.8,104.9z"/>
		<path class="st4" d="M8.2,109.1c-1-0.5-2.3-0.1-2.8,1c-1.1,2.3-1.7,4.7-1.7,7.3v6.6c0,1.1,0.9,2.1,2.1,2.1s2.1-0.9,2.1-2.1v-6.6
			c0-1.9,0.4-3.7,1.3-5.5C9.7,110.8,9.2,109.6,8.2,109.1L8.2,109.1z"/>
	</g>
</g>
</svg>
