<?xml version="1.0" encoding="utf-8"?>
<!-- Generator: Adobe Illustrator 24.1.1, SVG Export Plug-In . SVG Version: 6.00 Build 0)  -->
<svg version="1.1" id="Capa_1" xmlns="http://www.w3.org/2000/svg" xmlns:xlink="http://www.w3.org/1999/xlink" x="0px" y="0px"
	 viewBox="0 0 408.7 408.7" style="enable-background:new 0 0 408.7 408.7;" xml:space="preserve">
<style type="text/css">
	.st0{fill:#B59532;}
</style>
<g>
	<path class="st0" d="M276.7,61.3h-170c-2.2,0-4,1.8-4,4v43.3c0,2.2,1.8,4,4,4h170c2.2,0,4-1.8,4-4V65.3
		C280.7,63.1,279,61.3,276.7,61.3z M272.7,75.2h-77v-5.8h77V75.2z M195.7,83.2h77v7.7h-77L195.7,83.2L195.7,83.2z M187.7,90.8h-77
		v-7.7h77V90.8z M187.7,69.3v5.8h-77v-5.8H187.7z M110.7,98.8h77v5.8h-77V98.8z M195.7,104.7v-5.8h77v5.8H195.7z"/>
	<path class="st0" d="M96,313.6h191.5c2.2,0,4-1.8,4-4v-63.3c0-2.2-1.8-4-4-4H96c-2.2,0-4,1.8-4,4v63.3
		C92,311.8,93.8,313.6,96,313.6z M100,250.3h183.5v55.3H100V250.3z"/>
	<path class="st0" d="M116.7,224.6h18c2.2,0,4-1.8,4-4s-1.8-4-4-4h-18c-2.2,0-4,1.8-4,4S114.5,224.6,116.7,224.6z"/>
	<path class="st0" d="M150.7,224.6h18c2.2,0,4-1.8,4-4s-1.8-4-4-4h-18c-2.2,0-4,1.8-4,4S148.5,224.6,150.7,224.6z"/>
	<path class="st0" d="M216.1,224.6h44c2.2,0,4-1.8,4-4s-1.8-4-4-4h-44c-2.2,0-4,1.8-4,4S213.9,224.6,216.1,224.6z"/>
	<path class="st0" d="M329.6,233.4l-4.2-0.4V132.9c6.8-1.7,11.8-7.8,11.8-15c0-8.5-7-15.5-15.5-15.5s-15.5,7-15.5,15.5
		c0,7,4.7,13,11.2,14.9v99.4l-10-1v-0.5c0-2.2-1.8-4-4-4H301l-9-91.7c-0.2-2-1.9-3.6-4-3.6h-2.8v-4.7h2.8c2.2,0,4-1.8,4-4V51.3
		c0-2.2-1.8-4-4-4h-0.7V32c0-2.2-1.8-4-4-4h-78.3V4c0-2.2-1.8-4-4-4h-18.7c-2.2,0-4,1.8-4,4v24h-78.3c-2.2,0-4,1.8-4,4v15.3h-0.7
		c-2.2,0-4,1.8-4,4v71.3c0,2.2,1.8,4,4,4h2.8v4.7h-2.8c-2.1,0-3.8,1.6-4,3.6l-9,91.7h-2.4c-2.2,0-4,1.8-4,4V326c0,2.2,1.8,4,4,4h0.7
		v28.7l-8.5,10.8l0,0c-0.5,0.7-0.9,1.5-0.9,2.5v32.7c0,2.2,1.8,4,4,4h232.7c2.2,0,4-1.8,4-4V372c0-0.9-0.3-1.8-0.9-2.5l0,0
		l-8.5-10.8V330h0.7c2.2,0,4-1.8,4-4v-64.5l22.2-2.2c2-0.2,3.6-1.9,3.6-4v-18C333.2,235.3,331.7,233.6,329.6,233.4z M314.2,117.8
		c0-4.1,3.4-7.5,7.5-7.5c4.1,0,7.5,3.4,7.5,7.5s-3.4,7.5-7.5,7.5h0C317.6,125.3,314.2,122,314.2,117.8z M107.4,349.9L96.1,368H83.6
		l23.8-30.4L107.4,349.9z M113.6,355h156.2l8.1,13H105.5L113.6,355z M287.4,368l-11.3-18.1l0-12.3l23.8,30.4H287.4z M268.1,347
		H115.4l0-17h152.7L268.1,347z M108.4,214.7h166.8l12.4,12H96L108.4,214.7z M272.7,150v56.7H226V150H272.7z M218,206.7h-52.5V150
		H218V206.7z M157.5,206.7h-46.8V150h46.8V206.7z M299.4,234.7L299.4,234.7v23.2V322H84.1v-87.3L299.4,234.7L299.4,234.7z
		 M99.4,118.7V55.3h184.7v63.3H99.4z M164.7,47.3V36h54v11.3H164.7z M279.4,47.3h-52.7V36h52.7V47.3z M197.1,8v6.8h-10.7V8H197.1z
		 M186.4,22.8h10.7V28h-10.7V22.8z M104.1,36h52.7v11.3h-52.7V36z M106.2,126.7h171v4.7h-171L106.2,126.7L106.2,126.7z M99,139.3
		h185.4l7.9,80.9L280.7,209v-63c0-2.2-1.8-4-4-4h-170c-2.2,0-4,1.8-4,4v63l-11.6,11.2L99,139.3z M88.7,330h14.5l-14.5,18.5V330z
		 M304.1,400.7H79.4V376h224.7V400.7z M280.3,330h14.5v18.5L280.3,330z M325.2,251.7l-17.8,1.8v-14.3l17.8,1.8V251.7z"/>
</g>
</svg>
