<?xml version="1.0" encoding="utf-8"?>
<!-- Generator: Adobe Illustrator 24.1.1, SVG Export Plug-In . SVG Version: 6.00 Build 0)  -->
<svg version="1.1" id="Layer_1" xmlns="http://www.w3.org/2000/svg" xmlns:xlink="http://www.w3.org/1999/xlink" x="0px" y="0px"
	 viewBox="0 0 512 512" style="enable-background:new 0 0 512 512;" xml:space="preserve">
<style type="text/css">
	.st0{fill:#B59532;}
</style>
<g>
	<g>
		
			<ellipse transform="matrix(0.1602 -0.9871 0.9871 0.1602 139.5748 316.8625)" class="st0" cx="256" cy="76.4" rx="12.4" ry="12.4"/>
	</g>
</g>
<g>
	<g>
		<circle class="st0" cx="256" cy="127.7" r="12.4"/>
	</g>
</g>
<g>
	<g>
		<circle class="st0" cx="256" cy="416.8" r="12.4"/>
	</g>
</g>
<g>
	<g>
		<path class="st0" d="M256,166.2c-6.8,0-12.4,5.5-12.4,12.4v38.8c0,6.8,5.5,12.4,12.4,12.4c6.8,0,12.4-5.5,12.4-12.4v-38.8
			C268.4,171.7,262.8,166.2,256,166.2z"/>
	</g>
</g>
<g>
	<g>
		<path class="st0" d="M504.1,267.5h-12.7c0.2-3.9,0.3-7.8,0.3-11.6s-0.1-7.7-0.3-11.6c0,0,12.7,0,12.7,0c4.6,0,8.2-4,7.9-8.5
			c-2.3-29.5-9.5-58.1-21.5-84.8c-1.3-2.8-4.1-4.7-7.2-4.7h-18.6c-4.2-7.9-8.8-15.7-13.9-23.1c0,0,10.5,0,10.6,0
			c6.5,0,10.2-7.8,6.2-12.8c-8.9-12.8-19-25-30-36C396.9,33.8,345.6,8.6,289,1.3c-4.7-0.6-8.9,3.2-8.9,7.9v13.3
			c-8-0.8-16.1-1.2-24-1.2s-16,0.4-24,1.2c0,0,0-13.3,0-13.3c0-4.7-4.3-8.4-8.9-7.9c-56.6,7.2-108,32.5-148.6,73.1
			c-11.2,11.2-21.4,23.4-30.3,36.4c-3.5,5.2,0.3,12.4,6.5,12.4h10.6c-5.1,7.4-9.8,15.2-13.9,23.1H28.8c-3.1,0-6,1.8-7.2,4.7
			C9.5,177.9,2.3,206.4,0,235.9c-0.3,4.5,3.4,8.5,7.9,8.5h12.7c-0.4,7.7-0.4,15.4,0,23.1c0,0-12.7,0-12.7,0c-4.5,0-8.2,4-7.9,8.5
			c2.5,33.2,11.3,64.9,26.1,94.5c1.3,2.7,4.1,4.4,7.1,4.4h19.3c4.7,8,9.9,15.7,15.5,23.1c0,0-10.6,0-10.6,0
			c-6.4,0-10.2,7.6-6.3,12.7C92.6,465.5,154.9,502,223,510.7c0.3,0,0.7,0.1,1,0.1c4.3,0,7.9-3.6,7.9-7.9v-13.3
			c8,0.8,16.1,1.2,24,1.2s16-0.4,24-1.2c0,0,0,13.3,0,13.3c0,4.3,3.6,7.9,7.9,7.9c0.3,0,0.7,0,1-0.1c67.9-8.7,130.6-45.4,171.9-99.9
			c3.9-5.1,0.1-12.7-6.3-12.7H444c5.6-7.4,10.8-15.1,15.5-23.1h19.3c3,0,5.7-1.7,7.1-4.4c14.8-29.5,23.5-61.3,26.1-94.5
			C512.3,271.5,508.7,267.5,504.1,267.5z M71.1,375h15.7c6.4,0,11.6,5.2,11.6,11.6c0,0.4,0,0.8-0.1,1.1c-0.6,5.3-4.8,9.7-10.1,10.3
			C82,390.7,76.3,383,71.1,375z M216.1,493.6L216.1,493.6c-49.6-8.2-94.5-31.3-130.5-67.3c-4-4-7.9-8.2-11.6-12.5c0,0,12.7,0,12.8,0
			c35.3,0,35.4-54.8,0-54.8H57.1H38.1c-11.3-23.9-18.6-49.3-21.5-75.7h12.5c0,0,57.5,0,57.7,0c35.2,0,35.4-54.8,0-54.8H29.1H16.6
			c2.6-23,8.4-45.2,17.3-66.4h18.2c0,0,34.6,0,34.7,0c35,0,35.5-54.8,0-54.8H66.3c6-7.6,12.5-14.9,19.3-21.8
			c36-36,80.9-59.1,130.5-67.3V493.6z M36.2,256c0-3.8,0.1-7.7,0.3-11.6h50.3c6.4,0,11.6,5.2,11.6,11.6s-5.2,11.6-11.6,11.6H36.5
			C36.3,263.7,36.2,259.8,36.2,256z M65.4,146.4c4.6-8,9.8-15.7,15.4-23.1c0,0,6,0,6,0c14.8,0,14.9,23.1,0,23.1H65.4z M280,473.5
			c-16,1.8-32.1,1.8-48.1,0V38.5c16-1.8,32.1-1.8,48.1,0V473.5z M423.8,398c-4.2-0.5-8-3.4-9.4-7.4c-2.7-7.4,2.8-15.6,10.8-15.6
			h15.7C435.7,383,430,390.7,423.8,398z M473.9,359.1h-18.9h-29.7c-15.1,0-27.4,12.3-27.4,27.4s12.3,27.4,27.4,27.4H438
			c-3.7,4.3-7.6,8.5-11.6,12.5c-36,36-80.9,59.1-130.5,67.3V18.4c49.6,8.2,94.5,31.3,130.5,67.3c6.9,6.9,13.3,14.2,19.3,21.8
			c0,0-20.5,0-20.5,0c-32.9,0-36.5,50-3.8,54.5c1.3,0.2,38.5,0.3,38.5,0.3h18.2c8.9,21.1,14.7,43.4,17.3,66.4h-12.5
			c0,0-57.5,0-57.7,0c-35.2,0-35.4,54.8,0,54.8h57.7h12.5C492.4,309.8,485.2,335.2,473.9,359.1z M446.6,146.4c0,0-21.4,0-21.4,0
			c-14.9,0-14.9-23.1,0-23.1h6C436.9,130.7,442,138.4,446.6,146.4z M475.8,256c0,3.8-0.1,7.7-0.3,11.6c0,0-50.1,0-50.3,0
			c-14.9,0-14.9-23.1,0-23.1h50.3C475.7,248.3,475.8,252.2,475.8,256z"/>
	</g>
</g>
</svg>
